<!DOCTYPE svg PUBLIC "-//W3C//DTD SVG 20010904//EN" "http://www.w3.org/TR/2001/REC-SVG-20010904/DTD/svg10.dtd">
<svg version="1.0" xmlns="http://www.w3.org/2000/svg" width="512px" height="512px" viewBox="0 0 5120 5120" preserveAspectRatio="xMidYMid meet">
<g id="layer1" fill="#ffffff" stroke="none">
 <path d="M2423 4699 c-19 -19 -16 -47 9 -82 26 -36 29 -87 9 -155 -29 -102 -127 -165 -456 -292 -33 -12 -98 -44 -145 -70 -47 -27 -148 -80 -225 -120 -77 -39 -150 -81 -163 -93 -31 -29 -77 -104 -92 -149 -14 -46 -21 -51 -90 -59 -84 -11 -130 -25 -156 -50 -33 -31 -30 -45 10 -59 19 -6 40 -18 46 -26 7 -7 25 -14 41 -14 34 0 52 -28 43 -67 -3 -16 -21 -73 -40 -128 -52 -156 -77 -403 -72 -727 l3 -223 29 -55 c16 -30 39 -68 51 -85 12 -16 40 -66 62 -110 22 -44 68 -131 103 -193 58 -103 75 -124 196 -241 130 -125 136 -130 271 -196 137 -66 261 -151 398 -271 33 -29 107 -93 164 -143 57 -50 163 -129 235 -175 73 -45 172 -114 220 -152 162 -126 182 -141 252 -186 83 -54 119 -73 159 -82 17 -4 70 -31 119 -59 92 -53 119 -59 199 -42 34 7 39 5 44 -13 4 -18 12 -20 56 -19 l52 2 -3 45 c-3 51 -26 87 -68 112 -27 16 -36 16 -112 3 -75 -13 -86 -13 -115 2 -50 25 -153 102 -231 172 -39 35 -89 75 -111 88 -22 14 -74 51 -115 82 -41 31 -88 65 -105 75 -16 11 -55 40 -85 66 -56 47 -66 54 -158 116 -29 19 -63 51 -76 72 -14 20 -43 62 -65 92 -89 122 -141 203 -141 220 0 36 31 31 76 -12 24 -24 51 -50 59 -58 9 -8 38 -40 65 -71 44 -50 55 -57 106 -68 159 -31 217 -1 351 184 20 27 40 68 45 90 9 47 -7 211 -28 274 -22 70 -17 156 14 235 33 83 57 104 144 118 87 15 189 -4 408 -79 259 -87 293 -109 340 -217 l19 -46 75 0 c41 0 77 4 81 9 3 5 19 12 36 16 17 4 33 13 36 21 8 22 -25 53 -66 60 -25 4 -53 22 -91 60 -55 53 -122 90 -495 269 -122 59 -238 95 -303 95 -67 0 -87 11 -102 56 -24 73 10 167 76 206 19 11 33 25 31 32 -2 6 -25 18 -50 27 -26 10 -55 26 -65 37 -9 10 -39 27 -66 37 l-50 18 -15 -23 c-9 -12 -29 -36 -44 -52 -25 -27 -32 -30 -68 -24 -36 6 -40 4 -49 -19 -5 -13 -20 -27 -34 -31 -20 -5 -29 -19 -47 -72 -31 -95 -116 -247 -146 -261 -13 -6 -44 -11 -68 -11 -44 0 -45 -1 -45 -33 0 -18 -5 -38 -12 -45 -15 -15 -270 -16 -354 -1 -96 17 -212 58 -229 82 -22 32 -19 48 29 149 24 51 54 118 67 148 34 82 67 130 97 143 75 32 275 215 319 291 15 26 16 79 2 129 -14 52 -89 108 -252 189 -127 63 -231 98 -430 143 -92 22 -102 30 -88 82 5 21 15 59 22 85 6 26 17 52 23 57 6 5 65 30 131 56 66 26 127 53 135 60 8 7 35 21 60 32 26 12 87 59 145 115 130 122 198 162 345 200 63 17 123 34 133 39 27 15 22 81 -10 131 -25 37 -28 50 -27 122 1 45 4 104 8 131 11 74 -1 85 -99 92 -58 4 -83 1 -92 -8z m-720 -1400 c12 -7 52 -31 88 -55 113 -74 113 -114 2 -197 -31 -23 -80 -61 -110 -85 -68 -54 -83 -47 -83 39 0 53 21 227 35 287 6 25 33 29 68 11z"/>
 </g>

</svg>