<?xml version="1.0" standalone="no"?>
<!DOCTYPE svg PUBLIC "-//W3C//DTD SVG 20010904//EN"
 "http://www.w3.org/TR/2001/REC-SVG-20010904/DTD/svg10.dtd">
<svg version="1.0" xmlns="http://www.w3.org/2000/svg"
 width="512.000000pt" height="512.000000pt" viewBox="0 0 512.000000 512.000000"
 preserveAspectRatio="xMidYMid meet">
<metadata>
Created by potrace 1.11, written by Peter Selinger 2001-2013
</metadata>
<g transform="translate(0.000000,512.000000) scale(0.100000,-0.100000)"
fill="#000000" stroke="none">
<path d="M3640 4732 c0 -27 -13 -27 -77 -1 -29 12 -37 10 -85 -11 -29 -14 -75
-39 -103 -57 -27 -17 -70 -37 -95 -43 -25 -7 -57 -21 -71 -31 -15 -10 -29 -19
-32 -19 -7 0 -124 -78 -176 -118 -47 -35 -133 -104 -141 -112 -11 -11 -119
-90 -124 -90 -2 0 -31 -17 -63 -37 -32 -21 -66 -42 -74 -48 -67 -43 -106 -72
-171 -132 -104 -95 -242 -211 -313 -264 -33 -24 -66 -50 -73 -56 -21 -20 -123
-77 -182 -102 -115 -48 -165 -85 -297 -220 -72 -74 -137 -146 -145 -160 -7
-14 -35 -64 -62 -111 -26 -47 -62 -114 -79 -150 -17 -36 -50 -94 -74 -129 -71
-104 -76 -134 -70 -419 5 -226 23 -446 45 -547 5 -22 25 -88 45 -148 30 -86
35 -111 26 -126 -8 -12 -20 -16 -36 -13 -17 3 -33 -4 -53 -23 -15 -15 -31 -27
-34 -26 -34 6 -46 -1 -46 -24 0 -14 5 -25 11 -25 7 0 20 -9 29 -20 10 -12 29
-23 42 -25 12 -2 41 -9 63 -15 22 -5 56 -11 75 -12 36 -3 35 -2 81 -100 35
-74 77 -118 143 -149 34 -15 97 -48 141 -71 44 -24 123 -67 175 -95 52 -28
142 -69 200 -91 189 -71 272 -115 342 -181 68 -63 89 -192 39 -245 -26 -28
-27 -58 -2 -81 17 -15 31 -16 100 -10 44 4 85 13 91 20 15 18 15 82 0 153 -16
73 -6 130 35 190 32 47 33 101 2 123 -12 8 -60 23 -107 33 -87 18 -182 56
-243 98 -19 13 -78 64 -132 113 -116 108 -245 181 -408 232 -54 17 -77 44 -88
106 -4 23 -10 58 -14 78 l-7 37 78 17 c44 10 115 28 159 40 44 13 93 26 109
30 52 11 297 137 358 183 62 47 73 63 83 131 9 63 -20 113 -130 224 -53 53
-103 97 -109 97 -7 0 -21 9 -30 19 -10 11 -33 27 -52 36 -29 13 -94 90 -94
110 0 4 -6 21 -14 38 -40 93 -51 116 -73 162 -40 85 -44 111 -19 133 21 20
100 49 190 71 70 17 334 26 369 12 25 -10 27 -14 21 -51 l-7 -40 62 0 c66 0
91 -15 114 -68 7 -15 24 -47 39 -72 14 -25 36 -76 49 -115 21 -65 33 -84 52
-85 4 0 7 7 7 15 0 32 18 13 24 -25 6 -42 32 -63 46 -40 14 23 100 -23 100
-55 0 -7 8 -19 18 -28 16 -14 22 -14 72 3 46 15 56 23 58 45 2 14 9 25 15 24
28 -4 97 15 112 31 14 16 12 18 -22 34 -73 33 -112 134 -83 220 11 36 12 36
68 36 92 0 243 49 372 121 36 20 76 40 90 44 14 4 68 30 120 58 52 28 114 60
137 71 23 12 70 48 105 81 52 50 70 61 97 60 26 0 39 7 58 32 24 31 24 33 7
39 -11 3 -38 14 -62 25 -43 19 -155 27 -178 11 -6 -4 -15 -21 -18 -39 -10 -46
-60 -109 -103 -132 -51 -26 -203 -81 -348 -127 -107 -35 -131 -39 -225 -39
-66 0 -117 5 -137 13 -37 16 -66 70 -91 170 -15 61 -14 70 3 136 24 95 42 251
34 305 -4 31 -14 51 -32 67 -15 13 -27 27 -27 32 0 5 -7 15 -15 22 -8 7 -13
16 -10 20 7 12 -120 128 -149 136 -15 3 -67 4 -115 2 -104 -5 -134 -22 -201
-113 -22 -29 -49 -56 -60 -60 -11 -4 -18 -10 -16 -14 7 -10 -52 -53 -66 -49
-21 7 -17 43 6 68 13 14 35 43 50 65 14 22 44 65 67 95 22 30 54 76 71 102 18
25 43 52 57 58 13 6 41 24 62 41 20 16 40 29 44 29 4 0 36 27 72 60 36 33 70
60 75 60 5 0 60 38 121 83 62 46 117 86 124 88 6 2 36 27 65 55 52 49 212 170
254 192 14 7 56 9 120 6 93 -6 101 -5 134 18 29 20 37 33 46 78 6 30 9 60 7
66 -2 6 -30 11 -63 11 -57 0 -60 -2 -60 -25z m-1967 -2581 c15 -15 53 -45 85
-66 91 -61 112 -84 112 -121 0 -28 -8 -39 -57 -77 -69 -52 -151 -93 -162 -81
-27 29 -58 359 -36 368 20 9 31 5 58 -23z"/>
</g>
</svg>
