<?xml version="1.0" standalone="no"?>
<!DOCTYPE svg PUBLIC "-//W3C//DTD SVG 20010904//EN"
 "http://www.w3.org/TR/2001/REC-SVG-20010904/DTD/svg10.dtd">
<svg version="1.0" xmlns="http://www.w3.org/2000/svg"
 width="512.000000pt" height="512.000000pt" viewBox="0 0 512.000000 512.000000"
 preserveAspectRatio="xMidYMid meet">
<metadata>
Created by potrace 1.11, written by Peter Selinger 2001-2013
</metadata>
<g transform="translate(0.000000,512.000000) scale(0.100000,-0.100000)"
fill="#000000" stroke="none">
<path d="M3640 4733 c0 -27 -22 -30 -60 -8 -29 17 -96 20 -105 5 -4 -6 -10 -8
-15 -5 -4 3 -11 -2 -14 -11 -4 -9 -9 -14 -13 -11 -3 4 -18 -2 -33 -13 -15 -11
-30 -17 -33 -13 -4 3 -9 -1 -13 -10 -3 -9 -12 -13 -20 -10 -8 3 -14 0 -14 -7
0 -7 -6 -10 -14 -7 -8 3 -17 -1 -20 -9 -3 -9 -10 -12 -16 -9 -5 3 -10 2 -10
-3 0 -5 -10 -13 -22 -17 -13 -4 -25 -9 -28 -10 -3 -1 -15 -6 -27 -10 -13 -4
-23 -12 -23 -17 0 -6 -6 -8 -13 -5 -7 3 -19 -4 -25 -14 -7 -10 -19 -19 -27
-19 -8 0 -15 -5 -15 -11 0 -5 -4 -7 -10 -4 -5 3 -10 2 -10 -3 0 -4 -18 -18
-40 -31 -22 -12 -55 -35 -72 -51 -17 -16 -35 -27 -39 -24 -4 2 -10 -5 -14 -16
-4 -11 -10 -18 -14 -15 -5 2 -29 -16 -55 -40 -25 -25 -46 -42 -46 -38 0 5 -7
-1 -15 -11 -8 -11 -15 -17 -15 -13 0 4 -9 -1 -20 -11 -12 -9 -23 -16 -26 -14
-3 2 -13 -6 -23 -16 -9 -11 -35 -30 -57 -41 -22 -12 -50 -30 -61 -40 -12 -11
-24 -17 -27 -14 -3 4 -6 1 -6 -5 0 -7 -5 -12 -10 -12 -6 0 -20 -9 -32 -20 -12
-10 -25 -17 -30 -14 -4 3 -8 1 -8 -4 0 -9 -78 -92 -86 -92 -7 0 -27 -17 -115
-103 -45 -42 -85 -75 -89 -72 -5 3 -11 -4 -15 -15 -3 -11 -10 -19 -14 -17 -4
1 -21 -8 -37 -20 -16 -12 -32 -22 -37 -22 -4 0 -17 -10 -29 -20 -11 -11 -25
-18 -30 -15 -4 3 -8 0 -8 -5 0 -6 -4 -11 -9 -11 -6 0 -22 -11 -37 -25 -15 -14
-33 -25 -40 -25 -8 0 -14 -4 -14 -10 0 -5 -7 -7 -15 -4 -8 4 -15 2 -15 -3 0
-6 -18 -16 -40 -23 -22 -7 -45 -19 -51 -27 -6 -7 -18 -13 -25 -13 -8 0 -14 -4
-14 -9 0 -5 -10 -11 -23 -15 -29 -7 -107 -74 -107 -91 0 -8 -45 -60 -100 -116
-56 -56 -99 -104 -96 -106 2 -3 -3 -13 -12 -24 -9 -11 -17 -23 -17 -27 -1 -4
-7 -18 -15 -32 -8 -14 -14 -28 -15 -32 0 -4 -8 -17 -18 -28 -9 -11 -17 -25
-17 -30 0 -6 -5 -10 -10 -10 -6 0 -10 -3 -9 -7 2 -14 -13 -53 -21 -53 -4 0
-15 -18 -26 -40 -10 -22 -22 -40 -26 -40 -4 0 -5 -7 -2 -15 4 -8 1 -15 -5 -15
-6 0 -11 -5 -11 -12 0 -6 -6 -19 -14 -27 -7 -9 -24 -47 -36 -86 -23 -68 -23
-75 -17 -389 3 -175 10 -322 14 -325 5 -3 10 -33 12 -66 2 -32 7 -70 12 -82 5
-13 9 -46 10 -73 1 -28 6 -50 10 -50 4 0 15 -34 24 -75 9 -41 20 -75 25 -75 5
0 7 -6 5 -12 -3 -7 -22 -13 -43 -13 -25 -1 -45 -8 -60 -23 -12 -12 -31 -22
-42 -22 -15 0 -20 -7 -20 -25 0 -14 5 -25 11 -25 7 0 20 -9 30 -21 10 -11 32
-23 50 -26 18 -2 43 -9 56 -14 13 -5 39 -9 57 -9 26 0 88 -29 64 -30 -4 0 1
-20 12 -45 11 -25 19 -49 19 -53 -4 -22 5 -37 45 -76 25 -23 51 -43 59 -43 20
0 157 -66 157 -76 0 -5 5 -5 11 -1 6 3 14 3 18 -2 8 -12 42 -33 64 -40 9 -4
17 -10 17 -15 0 -5 7 -9 15 -9 8 0 15 -4 15 -10 0 -5 7 -7 15 -4 8 4 15 2 15
-4 0 -8 26 -21 53 -26 4 0 11 -7 16 -14 5 -8 10 -13 12 -12 4 1 28 -6 59 -18
8 -3 17 -6 20 -7 3 -1 19 -7 35 -14 17 -7 35 -14 40 -15 6 -2 24 -9 40 -15 17
-7 36 -14 43 -15 8 -1 17 -8 21 -15 5 -7 10 -12 12 -12 13 2 49 -13 49 -20 0
-5 7 -6 15 -3 8 4 15 2 15 -4 0 -8 18 -17 43 -20 5 0 17 -10 26 -21 10 -12 22
-21 27 -21 13 0 54 -46 54 -59 0 -6 5 -11 11 -11 6 0 9 -6 6 -14 -3 -8 1 -17
10 -20 9 -4 13 -9 10 -13 -4 -3 0 -15 8 -27 22 -31 18 -78 -10 -116 -18 -25
-25 -45 -23 -72 l2 -37 108 0 c59 0 107 4 106 7 -1 4 4 21 11 37 14 32 9 104
-7 114 -5 3 -10 38 -10 78 0 57 4 75 19 92 11 12 16 21 12 21 -4 0 -1 5 8 10
11 6 16 26 18 64 2 56 -14 84 -51 93 -7 1 -37 9 -67 18 -29 8 -57 12 -61 10
-4 -3 -11 2 -14 10 -3 8 -9 14 -13 13 -16 -3 -63 15 -63 24 0 6 -7 8 -15 4 -8
-3 -15 -2 -15 3 0 8 -37 24 -52 22 -4 0 -10 8 -13 19 -4 11 -13 20 -21 20 -8
0 -14 5 -14 12 0 6 -3 9 -6 5 -3 -3 -14 2 -25 11 -11 9 -22 17 -25 17 -3 0
-32 26 -65 58 -33 32 -75 65 -95 73 -21 9 -32 19 -28 26 4 6 3 8 -3 5 -5 -4
-20 3 -31 14 -12 11 -22 16 -22 12 0 -4 -6 -1 -13 7 -11 13 -20 17 -62 23 -5
1 -13 7 -17 12 -4 6 -11 10 -15 11 -28 2 -131 39 -145 52 -10 8 -18 11 -19 6
-1 -14 -22 39 -26 66 -2 14 -8 38 -13 54 -19 55 -14 61 50 75 33 7 63 13 67
13 5 1 28 7 53 14 25 7 60 16 79 19 19 3 39 9 45 13 6 3 20 8 31 10 11 2 25 5
32 6 7 1 16 5 19 9 4 4 16 7 26 7 10 0 18 4 18 9 0 7 27 20 53 25 4 0 11 7 16
14 5 8 10 13 12 13 13 -2 49 13 49 20 0 5 7 6 15 3 8 -4 15 -2 15 4 0 10 47
27 68 23 6 -1 12 3 12 9 0 5 4 10 9 10 12 0 80 68 73 74 -3 3 3 8 12 12 9 3
14 10 11 14 -3 5 1 28 9 51 15 43 11 99 -6 99 -5 0 -8 5 -6 11 5 15 -227 249
-247 249 -8 0 -15 4 -15 9 0 5 -18 16 -40 25 -42 17 -76 60 -101 129 -7 20
-17 37 -21 37 -5 0 -8 6 -7 13 3 18 -12 67 -21 67 -6 0 -48 84 -55 110 -1 3
-5 13 -9 23 -10 22 1 70 14 62 6 -4 13 1 16 9 3 9 10 14 14 11 5 -3 29 4 54
15 25 10 46 17 46 15 0 -2 21 2 48 10 26 8 71 15 100 16 29 2 55 6 58 11 8 12
202 10 209 -2 4 -6 11 -8 16 -4 5 3 9 2 8 -3 -1 -4 -1 -25 0 -45 l1 -37 63 -3
c53 -3 63 -6 72 -25 5 -13 13 -23 17 -23 4 0 5 -7 2 -15 -4 -8 -1 -15 5 -15 6
0 11 -7 11 -15 0 -8 4 -15 9 -15 5 0 13 -10 17 -22 4 -13 10 -25 13 -28 10 -8
51 -97 55 -123 3 -12 5 -23 7 -24 1 -2 2 -8 3 -15 2 -17 46 -21 46 -3 0 32 18
13 24 -25 6 -42 32 -63 46 -40 13 21 47 2 91 -50 25 -29 48 -48 60 -47 10 1
19 4 19 8 0 4 17 11 38 16 30 7 38 14 40 36 4 29 12 33 30 15 9 -9 12 -9 12 0
0 6 18 15 40 18 36 6 60 26 60 49 0 3 -20 15 -45 26 -42 19 -81 70 -77 103 1
6 5 38 9 71 l8 60 58 3 c34 2 57 -1 57 -7 0 -13 27 -4 65 23 17 12 32 20 35
19 3 -2 19 1 35 7 17 5 41 11 55 14 14 2 39 10 55 17 17 7 32 13 35 14 3 0 15
6 26 13 12 6 24 8 28 5 3 -3 6 -2 6 4 0 9 25 21 52 27 4 0 16 9 28 18 11 10
20 14 20 10 0 -4 5 0 10 8 5 8 13 16 17 16 26 5 53 18 53 26 0 5 5 6 11 3 5
-4 18 2 28 14 10 11 21 18 24 14 4 -3 9 1 13 10 3 9 12 13 20 10 8 -3 14 -1
14 5 0 8 32 21 54 23 8 0 136 130 136 138 0 10 39 11 45 0 12 -18 95 43 95 70
0 13 -39 44 -58 46 -9 1 -24 5 -33 9 -8 4 -56 6 -105 4 -84 -3 -89 -4 -92 -25
-2 -13 -8 -23 -14 -23 -5 0 -8 -6 -5 -14 3 -8 -1 -17 -9 -20 -9 -3 -13 -10
-10 -15 8 -12 -73 -93 -85 -85 -5 3 -12 -1 -15 -10 -3 -8 -12 -12 -20 -9 -8 3
-14 0 -14 -5 0 -6 -17 -14 -37 -19 -48 -9 -43 -8 -78 -22 -16 -7 -37 -14 -45
-16 -8 -2 -42 -11 -75 -21 -33 -9 -69 -18 -80 -20 -11 -1 -20 -3 -20 -4 0 -1
-16 -4 -35 -7 -19 -2 -48 -10 -65 -17 -53 -22 -246 -12 -244 13 2 14 -14 51
-22 51 -5 0 -8 3 -7 8 1 4 -4 24 -11 45 -7 21 -14 45 -15 52 -1 8 -5 18 -9 21
-9 10 -9 69 1 78 4 4 7 11 8 14 0 4 6 19 11 33 6 14 14 50 18 80 3 30 9 68 12
84 9 49 9 45 -12 151 -3 11 -15 32 -27 46 -42 46 -56 66 -52 70 7 8 -91 105
-123 122 -22 11 -57 16 -110 16 -116 -1 -143 -10 -194 -66 -24 -26 -61 -65
-81 -86 -21 -21 -39 -41 -40 -45 -4 -17 -50 -45 -64 -39 -12 5 -11 13 12 53
14 27 42 68 63 92 44 53 91 119 91 129 1 15 67 80 120 117 30 22 65 48 77 60
12 11 26 20 30 19 4 0 17 8 27 18 10 9 23 15 28 12 4 -3 8 -1 8 4 0 13 47 62
60 62 5 0 10 5 10 11 0 5 5 7 11 4 5 -4 19 3 30 16 10 12 19 18 19 13 0 -5 7
0 15 10 8 11 15 17 15 13 0 -4 9 1 20 11 12 9 23 16 26 14 2 -1 22 18 43 42
21 25 41 43 44 40 3 -3 32 22 65 55 33 33 63 57 66 54 3 -4 6 -1 6 5 0 7 5 12
10 12 6 0 20 9 32 20 12 10 25 17 29 15 4 -3 10 4 14 15 4 11 10 18 14 15 4
-2 18 5 29 16 12 11 22 16 22 12 0 -4 5 0 11 10 18 31 56 39 110 23 27 -8 49
-13 49 -10 0 3 10 -1 23 -8 39 -22 63 -19 96 9 17 15 31 33 31 40 0 7 4 13 9
13 16 0 31 90 19 115 -8 19 -18 22 -69 22 -55 0 -59 -2 -59 -24z m-1949 -2603
c28 -28 54 -48 58 -45 8 4 36 -44 33 -57 -1 -3 12 -9 28 -13 17 -4 28 -10 25
-15 -3 -4 4 -10 15 -13 19 -5 30 -47 13 -47 -5 0 -29 -20 -55 -44 -26 -24 -61
-50 -77 -57 -17 -8 -31 -18 -31 -22 0 -5 -5 -5 -11 -1 -6 3 -15 1 -19 -6 -17
-27 -30 3 -30 68 0 37 -7 88 -15 115 -8 26 -12 47 -9 47 3 0 2 5 -2 11 -10 17
-10 119 1 123 20 9 27 5 76 -44z"/>
<path d="M4110 3113 c0 -18 27 -36 35 -23 4 6 4 14 1 17 -3 4 -6 0 -6 -8 -1
-10 -5 -8 -15 5 -8 11 -15 15 -15 9z"/>
</g>
</svg>
